<?xml version="1.0" standalone="no"?>
<svg version="1.0" xmlns="http://www.w3.org/2000/svg"
 width="336.000000pt" height="336.000000pt" viewBox="0 0 336.000000 336.000000"
 preserveAspectRatio="xMidYMid meet">

<g transform="translate(0.000000,336.000000) scale(0.100000,-0.100000)"
fill="#EF2929" stroke="none">
<path d="M2745 3286 c-242 -65 -408 -174 -524 -344 -91 -135 -121 -234 -121
-403 0 -88 5 -129 19 -172 54 -156    162 -254 323 -292 203 -48 480 33 706 207
51 40 58 51 46 82 -10 27 -40 18 -177 -53 -73 -38 -172 -82 -220 -96 -161 -50
-302 -22 -395 79 -64 70 -84 118 -90 217 -6 106 -8 104 138 114 117 7 311 35
410 58 266 63 423 186 437 344 4 50 0 66 -24 113 -55 107 -161 158 -342 166
-79 4 -112 0 -186 -20z m254 -92 c76 -32 120 -106 106 -177 -30 -145 -195
-229 -545 -281 -91 -13 -175 -20 -218 -17 -19 1 -6 42 44 149 119 249 418 407
613 326z"/>
<path d="M1375 2224 c-300 -68 -494 -165 -723 -362 -77 -67 -203 -233 -264
-349 -119 -226 -163 -492 -124 -743 46 -293 258 -521 556 -596 116 -29 347
-25 501 9 198 44 417 138 583 249 96 65 226 170 226 183 0 16 -79 105 -93 105
-6 0 -69 -36 -140 -81 -143 -90 -327 -181 -459 -228 -77 -27 -104 -31 -237
-36 l-150 -5 -98 46 c-174 83 -280 220 -318 406 -16 84 -18 130 -9 201 l7 46
51 5 c28 3 134 13 236 21 472 41 841 130 1048 253 37 22 100 70 140 107 57 53
80 84 112 148 43 88 63 167 54 220 -14 86 -39 149 -78 195 -148 172 -267 221
-551 228 -143 3 -172 1 -270 -22z m416 -206 c110 -60 157 -146 144 -262 -16
-146 -133 -265 -341 -346 -123 -48 -337 -101 -524 -130 -140 -21 -398 -45
-405 -38 -8 7 45 159 80 233 134 280 385 491 680 571 33 9 92 13 176 10 123
-3 128 -4 190 -38z"/>
</g>
</svg>
